<svg width="211" height="46" viewBox="0 0 211 46" fill="none" xmlns="http://www.w3.org/2000/svg">
<path d="M24.8182 0V7.20383H60.7727L70 15.9737V33.5135L60.7727 42.5966V24.7436H42.6363L24.8182 42.5966V24.7436H0L24.8182 0Z" fill="url(#paint0_linear)"/>
<g style="mix-blend-mode:overlay" opacity="0.65">
<path fill-rule="evenodd" clip-rule="evenodd" d="M70 33.5134L60.7727 42.5965V24.7435L70 15.9736V33.5134Z" fill="url(#paint1_linear)"/>
<path d="M42.6365 24.7435H60.7728L51.3865 16.2869L42.6365 24.7435Z" fill="url(#paint2_radial)"/>
<path fill-rule="evenodd" clip-rule="evenodd" d="M42.6356 24.7437L24.8174 42.5966L24.8174 24.7437H42.6356Z" fill="url(#paint3_radial)"/>
<path fill-rule="evenodd" clip-rule="evenodd" d="M60.7719 7.20386L42.6356 24.7436L24.8174 7.20386H60.7719Z" fill="url(#paint4_radial)"/>
<path d="M24.8174 24.7436H42.6356L24.8174 7.20386V24.7436Z" fill="url(#paint5_radial)"/>
<path fill-rule="evenodd" clip-rule="evenodd" d="M24.8182 0V24.7436H0L24.8182 0Z" fill="url(#paint6_radial)"/>
</g>
<path d="M92.4904 21.3418C89.9799 21.3418 88.1194 20.7692 86.909 19.6239C85.6986 18.4786 85.0933 16.7497 85.0933 14.4371V9.0521H82V4.72427H85.0933V0H91.0783V4.72427H95.7855V9.0521H91.0783V14.2389C91.0783 15.8247 91.8964 16.6175 93.5328 16.6175C93.8018 16.6175 94.0932 16.5955 94.407 16.5515C94.7432 16.4854 95.1131 16.3973 95.5165 16.2872L96.3235 20.5159C95.8079 20.7802 95.2027 20.9784 94.5078 21.1106C93.813 21.2647 93.1405 21.3418 92.4904 21.3418Z" fill="#212429"/>
<path d="M102.536 21.3418C101.259 21.3418 100.127 21.1106 99.1405 20.648C98.1766 20.1855 97.4145 19.5578 96.8541 18.7649C96.3161 17.95 96.0472 17.025 96.0472 15.9898C96.0472 14.8225 96.361 13.8975 96.9886 13.2148C97.6162 12.51 98.6249 12.0144 100.015 11.7281C101.404 11.4197 103.254 11.2656 105.563 11.2656H106.84V10.8031C106.84 10.0102 106.627 9.44855 106.201 9.11818C105.798 8.78781 105.092 8.62263 104.083 8.62263C103.231 8.62263 102.29 8.75477 101.259 9.01907C100.228 9.28336 99.2189 9.69082 98.2327 10.2414L96.7196 6.37612C97.28 5.97968 97.9973 5.62728 98.8715 5.31894C99.7457 5.01059 100.665 4.77934 101.629 4.62516C102.592 4.44897 103.5 4.36087 104.352 4.36087C107.109 4.36087 109.149 4.94452 110.472 6.11182C111.816 7.27913 112.489 9.11818 112.489 11.629V20.9784H106.907V18.6658C106.616 19.5028 106.089 20.1635 105.327 20.648C104.565 21.1106 103.635 21.3418 102.536 21.3418ZM103.881 17.5095C104.711 17.5095 105.406 17.2453 105.966 16.7167C106.549 16.1881 106.84 15.4943 106.84 14.6353V14.0407H105.563C104.24 14.0407 103.265 14.1838 102.637 14.4702C102.032 14.7344 101.729 15.1639 101.729 15.7586C101.729 16.2652 101.909 16.6836 102.267 17.014C102.649 17.3444 103.186 17.5095 103.881 17.5095Z" fill="#212429"/>
<path d="M114.552 20.9784V4.72427H120.369V6.93775C120.952 6.10081 121.703 5.4621 122.622 5.02161C123.541 4.58111 124.572 4.36087 125.715 4.36087C127.687 4.36087 129.145 4.93351 130.086 6.07879C131.05 7.22406 131.532 8.98603 131.532 11.3647V20.9784H125.547V11.5959C125.547 10.6048 125.367 9.90005 125.009 9.48158C124.673 9.06312 124.168 8.85388 123.496 8.85388C122.599 8.85388 121.882 9.1402 121.344 9.71284C120.806 10.2635 120.537 11.0123 120.537 11.9594V20.9784H114.552Z" fill="#212429"/>
<path d="M141.802 27.2885C140.143 27.2885 138.585 27.1343 137.128 26.8259C135.694 26.5176 134.461 26.011 133.43 25.3062L134.976 21.3418C135.828 21.8484 136.837 22.2448 138.002 22.5312C139.19 22.8175 140.266 22.9606 141.23 22.9606C142.598 22.9606 143.617 22.6743 144.29 22.1017C144.985 21.5511 145.332 20.6811 145.332 19.4918V17.9721C144.862 18.7649 144.155 19.3926 143.214 19.8552C142.273 20.3177 141.264 20.5489 140.188 20.5489C138.708 20.5489 137.42 20.2186 136.321 19.5578C135.223 18.8751 134.36 17.928 133.732 16.7167C133.127 15.5053 132.824 14.0847 132.824 12.4549C132.824 10.8251 133.127 9.4045 133.732 8.19314C134.36 6.98179 135.223 6.04575 136.321 5.38501C137.42 4.70225 138.708 4.36087 140.188 4.36087C141.309 4.36087 142.329 4.60314 143.248 5.08768C144.189 5.5502 144.873 6.16688 145.299 6.93775V4.72427H151.149V18.798C151.149 21.6392 150.342 23.7645 148.728 25.1741C147.114 26.5837 144.805 27.2885 141.802 27.2885ZM142.037 16.2211C143.023 16.2211 143.808 15.8907 144.391 15.23C144.974 14.5693 145.265 13.6442 145.265 12.4549C145.265 11.2656 144.974 10.3405 144.391 9.67981C143.808 9.01907 143.023 8.6887 142.037 8.6887C141.073 8.6887 140.3 9.01907 139.717 9.67981C139.134 10.3405 138.843 11.2656 138.843 12.4549C138.843 13.6442 139.134 14.5693 139.717 15.23C140.3 15.8907 141.073 16.2211 142.037 16.2211Z" fill="#212429"/>
<path d="M153.3 20.9784V4.72427H159.117V7.46633C159.879 5.59424 161.527 4.5701 164.06 4.3939L165.707 4.26176L166.043 9.21729L162.782 9.51462C161.594 9.62474 160.731 9.95511 160.193 10.5057C159.655 11.0343 159.386 11.8272 159.386 12.8844V20.9784H153.3Z" fill="#212429"/>
<path d="M172.119 21.3418C170.842 21.3418 169.71 21.1106 168.724 20.648C167.76 20.1855 166.998 19.5578 166.437 18.7649C165.899 17.95 165.63 17.025 165.63 15.9898C165.63 14.8225 165.944 13.8975 166.572 13.2148C167.199 12.51 168.208 12.0144 169.598 11.7281C170.987 11.4197 172.837 11.2656 175.146 11.2656H176.423V10.8031C176.423 10.0102 176.21 9.44855 175.784 9.11818C175.381 8.78781 174.675 8.62263 173.666 8.62263C172.814 8.62263 171.873 8.75477 170.842 9.01907C169.811 9.28336 168.802 9.69082 167.816 10.2414L166.303 6.37612C166.863 5.97968 167.58 5.62728 168.455 5.31894C169.329 5.01059 170.248 4.77934 171.212 4.62516C172.175 4.44897 173.083 4.36087 173.935 4.36087C176.692 4.36087 178.732 4.94452 180.055 6.11182C181.399 7.27913 182.072 9.11818 182.072 11.629V20.9784H176.49V18.6658C176.199 19.5028 175.672 20.1635 174.91 20.648C174.148 21.1106 173.218 21.3418 172.119 21.3418ZM173.464 17.5095C174.294 17.5095 174.989 17.2453 175.549 16.7167C176.132 16.1881 176.423 15.4943 176.423 14.6353V14.0407H175.146C173.823 14.0407 172.848 14.1838 172.22 14.4702C171.615 14.7344 171.312 15.1639 171.312 15.7586C171.312 16.2652 171.492 16.6836 171.85 17.014C172.232 17.3444 172.77 17.5095 173.464 17.5095Z" fill="#212429"/>
<path d="M184.202 20.9784V4.72427H190.019V6.90471C190.535 6.13385 191.218 5.51716 192.07 5.05464C192.944 4.59213 193.942 4.36087 195.063 4.36087C196.183 4.36087 197.147 4.60314 197.954 5.08768C198.784 5.57222 199.411 6.32106 199.837 7.33419C200.397 6.38713 201.16 5.66032 202.123 5.15375C203.087 4.62516 204.152 4.36087 205.318 4.36087C207.245 4.36087 208.669 4.93351 209.588 6.07879C210.529 7.20204 211 8.96401 211 11.3647V20.9784H205.015V11.5299C205.015 10.5828 204.869 9.90005 204.578 9.48158C204.287 9.06312 203.805 8.85388 203.132 8.85388C202.303 8.85388 201.664 9.1402 201.216 9.71284C200.79 10.2855 200.577 11.1004 200.577 12.1576V20.9784H194.592V11.5299C194.592 10.5828 194.446 9.90005 194.155 9.48158C193.863 9.06312 193.381 8.85388 192.709 8.85388C191.902 8.85388 191.274 9.1402 190.826 9.71284C190.4 10.2855 190.187 11.1004 190.187 12.1576V20.9784H184.202Z" fill="#212429"/>
<path d="M90.5005 30.7773V42.3853H88.3882V41.0846C88.1383 41.5346 87.7749 41.8859 87.2979 42.1384C86.8323 42.3908 86.2985 42.5171 85.6966 42.5171C84.9812 42.5171 84.3395 42.3414 83.7717 41.9902C83.2152 41.6389 82.7779 41.1449 82.4599 40.5083C82.1533 39.8607 82 39.1197 82 38.2855C82 37.4512 82.1533 36.7213 82.4599 36.0956C82.7779 35.4699 83.2152 34.9869 83.7717 34.6467C84.3281 34.3064 84.9698 34.1362 85.6966 34.1362C86.2985 34.1362 86.8323 34.257 87.2979 34.4985C87.7636 34.74 88.1213 35.0802 88.3712 35.5193V30.7773H90.5005ZM86.2588 40.9199C86.9402 40.9199 87.4626 40.6949 87.826 40.2448C88.2008 39.7948 88.3882 39.1527 88.3882 38.3184C88.3882 37.4842 88.2008 36.8475 87.826 36.4084C87.4626 35.9584 86.9459 35.7334 86.2758 35.7334C85.5944 35.7334 85.0663 35.9529 84.6916 36.392C84.3168 36.831 84.1294 37.4622 84.1294 38.2855C84.1294 39.1197 84.3168 39.7674 84.6916 40.2284C85.0663 40.6894 85.5887 40.9199 86.2588 40.9199Z" fill="#212429"/>
<path d="M99.6584 38.73H93.9857C94.0538 39.4765 94.2867 40.0308 94.6841 40.393C95.0816 40.7553 95.6495 40.9364 96.3877 40.9364C97.3076 40.9364 98.148 40.651 98.9089 40.0802L99.5221 41.4962C99.136 41.8036 98.6477 42.0505 98.0571 42.2371C97.4779 42.4238 96.893 42.5171 96.3025 42.5171C94.9397 42.5171 93.8608 42.1438 93.0658 41.3974C92.2822 40.651 91.8904 39.6301 91.8904 38.3349C91.8904 37.5116 92.0607 36.7816 92.4014 36.145C92.7421 35.5083 93.2191 35.0144 93.8324 34.6631C94.457 34.3119 95.1611 34.1362 95.9447 34.1362C97.0918 34.1362 97.9946 34.493 98.6533 35.2065C99.3234 35.92 99.6584 36.9024 99.6584 38.1538V38.73ZM95.9958 35.5852C95.428 35.5852 94.9681 35.7608 94.616 36.1121C94.2753 36.4633 94.0652 36.9683 93.9857 37.6269H97.8356C97.8129 36.9573 97.6426 36.4523 97.3246 36.1121C97.0066 35.7608 96.5637 35.5852 95.9958 35.5852Z" fill="#212429"/>
<path d="M104.126 42.5171C103.388 42.5171 102.706 42.4292 102.082 42.2536C101.468 42.078 100.946 41.8255 100.514 41.4962L101.111 40.0637C101.996 40.6894 103.013 41.0022 104.16 41.0022C104.648 41.0022 105.017 40.9254 105.267 40.7717C105.528 40.6181 105.659 40.3985 105.659 40.1131C105.659 39.8716 105.568 39.685 105.386 39.5533C105.216 39.4216 104.904 39.3008 104.45 39.1911L103.087 38.8947C102.314 38.73 101.741 38.4611 101.366 38.0879C100.991 37.7147 100.804 37.2317 100.804 36.639C100.804 36.145 100.946 35.7114 101.23 35.3382C101.525 34.954 101.928 34.6576 102.439 34.4491C102.962 34.2405 103.564 34.1362 104.245 34.1362C104.836 34.1362 105.404 34.224 105.949 34.3997C106.505 34.5753 106.993 34.8223 107.414 35.1406L106.817 36.5402C105.954 35.9364 105.091 35.6346 104.228 35.6346C103.762 35.6346 103.399 35.7169 103.138 35.8815C102.877 36.0462 102.746 36.2767 102.746 36.5731C102.746 36.7926 102.826 36.9737 102.985 37.1164C103.155 37.2591 103.422 37.3689 103.785 37.4457L105.199 37.7586C106.028 37.9342 106.636 38.2141 107.022 38.5983C107.408 38.9715 107.601 39.4655 107.601 40.0802C107.601 40.8266 107.289 41.4194 106.664 41.8584C106.039 42.2975 105.193 42.5171 104.126 42.5171Z" fill="#212429"/>
<path d="M108.987 34.3338H111.116V42.3853H108.987V34.3338ZM111.218 30.5962V32.6214H108.868V30.5962H111.218Z" fill="#212429"/>
<path d="M121.08 34.3338V41.6444C121.08 42.9067 120.717 43.8617 119.99 44.5094C119.275 45.157 118.213 45.4808 116.804 45.4808C116.078 45.4808 115.379 45.3875 114.709 45.2009C114.039 45.0253 113.454 44.7728 112.954 44.4435L113.551 42.9945C114.584 43.5983 115.652 43.9001 116.753 43.9001C118.23 43.9001 118.968 43.1976 118.968 41.7926V40.7388C118.718 41.1889 118.355 41.5401 117.878 41.7926C117.401 42.0341 116.856 42.1548 116.242 42.1548C115.515 42.1548 114.868 41.9902 114.3 41.6609C113.744 41.3206 113.307 40.8486 112.989 40.2448C112.671 39.6411 112.512 38.9441 112.512 38.1538C112.512 37.3634 112.665 36.6664 112.972 36.0627C113.29 35.448 113.732 34.976 114.3 34.6467C114.868 34.3064 115.515 34.1362 116.242 34.1362C116.856 34.1362 117.401 34.2625 117.878 34.5149C118.355 34.7564 118.718 35.1022 118.968 35.5522V34.3338H121.08ZM116.804 40.5577C117.486 40.5577 118.014 40.3436 118.389 39.9155C118.775 39.4874 118.968 38.9002 118.968 38.1538C118.968 37.3964 118.775 36.8036 118.389 36.3755C118.014 35.9474 117.486 35.7334 116.804 35.7334C116.134 35.7334 115.606 35.9474 115.22 36.3755C114.834 36.8036 114.641 37.3964 114.641 38.1538C114.641 38.8892 114.834 39.4765 115.22 39.9155C115.606 40.3436 116.134 40.5577 116.804 40.5577Z" fill="#212429"/>
<path d="M127.783 34.1362C128.782 34.1362 129.526 34.4106 130.015 34.9595C130.503 35.5083 130.747 36.3371 130.747 37.4457V42.3853H128.618V37.561C128.618 36.9353 128.493 36.4798 128.243 36.1944C128.005 35.909 127.624 35.7663 127.102 35.7663C126.488 35.7663 125.994 35.9529 125.62 36.3261C125.256 36.6993 125.074 37.1988 125.074 37.8245V42.3853H122.945V34.3338H125.023V35.5358C125.307 35.0857 125.688 34.74 126.165 34.4985C126.642 34.257 127.181 34.1362 127.783 34.1362Z" fill="#212429"/>
<path d="M139.92 42.5171C139.181 42.5171 138.5 42.4292 137.875 42.2536C137.262 42.078 136.74 41.8255 136.308 41.4962L136.904 40.0637C137.79 40.6894 138.807 41.0022 139.954 41.0022C140.442 41.0022 140.811 40.9254 141.061 40.7717C141.322 40.6181 141.453 40.3985 141.453 40.1131C141.453 39.8716 141.362 39.685 141.18 39.5533C141.01 39.4216 140.698 39.3008 140.243 39.1911L138.881 38.8947C138.108 38.73 137.535 38.4611 137.16 38.0879C136.785 37.7147 136.598 37.2317 136.598 36.639C136.598 36.145 136.74 35.7114 137.024 35.3382C137.319 34.954 137.722 34.6576 138.233 34.4491C138.756 34.2405 139.358 34.1362 140.039 34.1362C140.629 34.1362 141.197 34.224 141.742 34.3997C142.299 34.5753 142.787 34.8223 143.207 35.1406L142.611 36.5402C141.748 35.9364 140.885 35.6346 140.022 35.6346C139.556 35.6346 139.193 35.7169 138.932 35.8815C138.67 36.0462 138.54 36.2767 138.54 36.5731C138.54 36.7926 138.619 36.9737 138.778 37.1164C138.949 37.2591 139.216 37.3689 139.579 37.4457L140.993 37.7586C141.822 37.9342 142.43 38.2141 142.816 38.5983C143.202 38.9715 143.395 39.4655 143.395 40.0802C143.395 40.8266 143.083 41.4194 142.458 41.8584C141.833 42.2975 140.987 42.5171 139.92 42.5171Z" fill="#212429"/>
<path d="M152.603 34.3503L147.594 45.3491H145.448L146.964 42.0725L143.489 34.3503H145.737L148.088 40.0308L150.507 34.3503H152.603Z" fill="#212429"/>
<path d="M156.24 42.5171C155.502 42.5171 154.821 42.4292 154.196 42.2536C153.583 42.078 153.06 41.8255 152.629 41.4962L153.225 40.0637C154.111 40.6894 155.127 41.0022 156.274 41.0022C156.763 41.0022 157.132 40.9254 157.382 40.7717C157.643 40.6181 157.773 40.3985 157.773 40.1131C157.773 39.8716 157.682 39.685 157.501 39.5533C157.33 39.4216 157.018 39.3008 156.564 39.1911L155.201 38.8947C154.429 38.73 153.855 38.4611 153.48 38.0879C153.106 37.7147 152.918 37.2317 152.918 36.639C152.918 36.145 153.06 35.7114 153.344 35.3382C153.639 34.954 154.043 34.6576 154.554 34.4491C155.076 34.2405 155.678 34.1362 156.359 34.1362C156.95 34.1362 157.518 34.224 158.063 34.3997C158.619 34.5753 159.108 34.8223 159.528 35.1406L158.932 36.5402C158.069 35.9364 157.205 35.6346 156.342 35.6346C155.877 35.6346 155.513 35.7169 155.252 35.8815C154.991 36.0462 154.86 36.2767 154.86 36.5731C154.86 36.7926 154.94 36.9737 155.099 37.1164C155.269 37.2591 155.536 37.3689 155.899 37.4457L157.313 37.7586C158.142 37.9342 158.75 38.2141 159.136 38.5983C159.522 38.9715 159.715 39.4655 159.715 40.0802C159.715 40.8266 159.403 41.4194 158.778 41.8584C158.154 42.2975 157.308 42.5171 156.24 42.5171Z" fill="#212429"/>
<path d="M165.277 40.9693C165.527 40.9693 165.788 40.9529 166.06 40.9199L165.958 42.4512C165.617 42.4841 165.305 42.5006 165.021 42.5006C163.852 42.5006 162.988 42.2426 162.432 41.7267C161.875 41.1998 161.597 40.4205 161.597 39.3887V35.8815H159.996V34.3338H161.597V31.9299H163.727V34.3338H165.924V35.8815H163.727V39.3557C163.727 40.4315 164.243 40.9693 165.277 40.9693Z" fill="#212429"/>
<path d="M174.274 38.73H168.601C168.669 39.4765 168.902 40.0308 169.299 40.393C169.697 40.7553 170.265 40.9364 171.003 40.9364C171.923 40.9364 172.763 40.651 173.524 40.0802L174.137 41.4962C173.751 41.8036 173.263 42.0505 172.672 42.2371C172.093 42.4238 171.508 42.5171 170.918 42.5171C169.555 42.5171 168.476 42.1438 167.681 41.3974C166.898 40.651 166.506 39.6301 166.506 38.3349C166.506 37.5116 166.676 36.7816 167.017 36.145C167.357 35.5083 167.834 35.0144 168.448 34.6631C169.072 34.3119 169.776 34.1362 170.56 34.1362C171.707 34.1362 172.61 34.493 173.269 35.2065C173.939 35.92 174.274 36.9024 174.274 38.1538V38.73ZM170.611 35.5852C170.043 35.5852 169.583 35.7608 169.231 36.1121C168.891 36.4633 168.681 36.9683 168.601 37.6269H172.451C172.428 36.9573 172.258 36.4523 171.94 36.1121C171.622 35.7608 171.179 35.5852 170.611 35.5852Z" fill="#212429"/>
<path d="M185.572 34.1362C186.515 34.1362 187.219 34.4106 187.685 34.9595C188.15 35.4974 188.383 36.3261 188.383 37.4457V42.3853H186.254V37.5281C186.254 36.9134 186.146 36.4688 185.93 36.1944C185.714 35.909 185.368 35.7663 184.891 35.7663C184.323 35.7663 183.88 35.9529 183.562 36.3261C183.244 36.6993 183.085 37.2207 183.085 37.8903V42.3853H180.956V37.5281C180.956 36.9134 180.848 36.4688 180.632 36.1944C180.428 35.909 180.081 35.7663 179.593 35.7663C179.036 35.7663 178.599 35.9529 178.281 36.3261C177.963 36.6993 177.804 37.2207 177.804 37.8903V42.3853H175.675V34.3338H177.753V35.4699C178.003 35.0308 178.349 34.7015 178.792 34.482C179.235 34.2515 179.741 34.1362 180.308 34.1362C181.569 34.1362 182.404 34.6412 182.813 35.651C183.074 35.179 183.449 34.8113 183.937 34.5479C184.425 34.2734 184.97 34.1362 185.572 34.1362Z" fill="#212429"/>
<path fill-rule="evenodd" clip-rule="evenodd" d="M202.66 32.25V42.1731H192.572L202.66 32.25Z" fill="#16DCA1"/>
<path fill-rule="evenodd" clip-rule="evenodd" d="M211 32.25V42.1731H200.911L211 32.25Z" fill="#16DCA1"/>
<defs>
<linearGradient id="paint0_linear" x1="24.8457" y1="1.46248e-06" x2="69.6019" y2="30.1947" gradientUnits="userSpaceOnUse">
<stop stop-color="#00ECFB"/>
<stop offset="1" stop-color="#1C92FF"/>
</linearGradient>
<linearGradient id="paint1_linear" x1="66.3409" y1="19.4189" x2="60.9365" y2="42.6346" gradientUnits="userSpaceOnUse">
<stop stop-color="white"/>
<stop offset="1"/>
</linearGradient>
<radialGradient id="paint2_radial" cx="0" cy="0" r="1" gradientUnits="userSpaceOnUse" gradientTransform="translate(51.2439 26.3426) rotate(-86.4725) scale(10.0748 21.7265)">
<stop stop-color="white"/>
<stop offset="1"/>
</radialGradient>
<radialGradient id="paint3_radial" cx="0" cy="0" r="1" gradientUnits="userSpaceOnUse" gradientTransform="translate(24.8174 42.5966) rotate(-90) scale(22.2379 22.6225)">
<stop stop-color="white"/>
<stop offset="1"/>
</radialGradient>
<radialGradient id="paint4_radial" cx="0" cy="0" r="1" gradientUnits="userSpaceOnUse" gradientTransform="translate(42.9537 7.20386) rotate(90) scale(17.5398 35.6019)">
<stop stop-color="white"/>
<stop offset="1"/>
</radialGradient>
<radialGradient id="paint5_radial" cx="0" cy="0" r="1" gradientUnits="userSpaceOnUse" gradientTransform="translate(22.7751 27.4636) rotate(-46.3745) scale(15.8729 15.9891)">
<stop stop-color="white"/>
<stop offset="1"/>
</radialGradient>
<radialGradient id="paint6_radial" cx="0" cy="0" r="1" gradientUnits="userSpaceOnUse" gradientTransform="translate(24.8182) rotate(99.7377) scale(22.1783 22.4886)">
<stop stop-color="white"/>
<stop offset="1"/>
</radialGradient>
</defs>
</svg>
