<svg width="600" height="124" viewBox="0 0 600 124" fill="none" xmlns="http://www.w3.org/2000/svg">
<path d="M70.573 0V19.3767H172.813L199.052 42.9657V90.1436L172.813 114.575V66.5547H121.241L70.573 114.575V66.5547H0L70.573 0Z" fill="url(#paint0_linear)"/>
<g style="mix-blend-mode:overlay" opacity="0.65">
<path fill-rule="evenodd" clip-rule="evenodd" d="M199.052 90.1435L172.813 114.575V66.5545L199.052 42.9655V90.1435Z" fill="url(#paint1_linear)"/>
<path d="M121.241 66.5546H172.814L146.123 43.808L121.241 66.5546Z" fill="url(#paint2_radial)"/>
<path fill-rule="evenodd" clip-rule="evenodd" d="M121.239 66.5548L70.5707 114.575L70.5707 66.5548H121.239Z" fill="url(#paint3_radial)"/>
<path fill-rule="evenodd" clip-rule="evenodd" d="M172.811 19.3767L121.238 66.5547L70.5707 19.3767H172.811Z" fill="url(#paint4_radial)"/>
<path d="M70.5707 66.5547H121.239L70.5707 19.3767V66.5547Z" fill="url(#paint5_radial)"/>
<path fill-rule="evenodd" clip-rule="evenodd" d="M70.573 0V66.5546H0L70.573 0Z" fill="url(#paint6_radial)"/>
</g>
<path d="M263.006 57.4047C255.867 57.4047 250.577 55.8644 247.135 52.7839C243.693 49.7033 241.972 45.0529 241.972 38.8326V24.3481H233.175V12.7072H241.972V0H258.99V12.7072H272.376V24.3481H258.99V38.2994C258.99 42.5648 261.317 44.6975 265.97 44.6975C266.735 44.6975 267.563 44.6382 268.456 44.5197C269.412 44.342 270.464 44.105 271.611 43.8088L273.906 55.1831C272.44 55.894 270.719 56.4272 268.743 56.7826C266.767 57.1973 264.854 57.4047 263.006 57.4047Z" fill="white"/>
<path d="M291.573 57.4047C287.94 57.4047 284.721 56.7826 281.916 55.5386C279.175 54.2945 277.008 52.6061 275.415 50.4735C273.885 48.2815 273.12 45.7934 273.12 43.0091C273.12 39.8693 274.012 37.3812 275.797 35.5447C277.582 33.649 280.45 32.316 284.402 31.5459C288.354 30.7165 293.613 30.3019 300.178 30.3019H303.811V29.0578C303.811 26.9251 303.205 25.4145 301.994 24.5258C300.847 23.6372 298.839 23.1929 295.971 23.1929C293.549 23.1929 290.872 23.5484 287.94 24.2593C285.008 24.9701 282.139 26.0661 279.335 27.5471L275.032 17.1503C276.626 16.084 278.665 15.1361 281.151 14.3067C283.637 13.4774 286.25 12.8553 288.991 12.4406C291.732 11.9667 294.314 11.7297 296.736 11.7297C304.576 11.7297 310.376 13.2996 314.137 16.4394C317.961 19.5792 319.874 24.5258 319.874 31.2793V56.4272H304.002V50.2069C303.174 52.458 301.676 54.2353 299.509 55.5386C297.341 56.7826 294.696 57.4047 291.573 57.4047ZM295.397 47.0967C297.756 47.0967 299.732 46.3858 301.325 44.964C302.982 43.5422 303.811 41.6762 303.811 39.3657V37.7662H300.178C296.417 37.7662 293.644 38.1513 291.86 38.9214C290.139 39.6323 289.278 40.7875 289.278 42.387C289.278 43.7496 289.788 44.8752 290.808 45.7638C291.892 46.6524 293.421 47.0967 295.397 47.0967Z" fill="white"/>
<path d="M325.74 56.4272V12.7072H342.281V18.661C343.938 16.4098 346.074 14.6918 348.687 13.507C351.3 12.3222 354.232 11.7297 357.483 11.7297C363.092 11.7297 367.236 13.27 369.913 16.3506C372.654 19.4311 374.024 24.1704 374.024 30.5684V56.4272H357.005V31.1905C357.005 28.5246 356.495 26.6289 355.475 25.5033C354.519 24.3777 353.085 23.8149 351.173 23.8149C348.623 23.8149 346.584 24.5851 345.054 26.1253C343.524 27.6064 342.759 29.6206 342.759 32.1679V56.4272H325.74Z" fill="white"/>
<path d="M403.228 73.3998C398.511 73.3998 394.081 72.9851 389.938 72.1557C385.859 71.3263 382.353 69.9638 379.421 68.0681L383.819 57.4047C386.241 58.7672 389.109 59.8336 392.424 60.6037C395.802 61.3738 398.862 61.7589 401.603 61.7589C405.491 61.7589 408.391 60.9888 410.303 59.4485C412.279 57.9675 413.267 55.6274 413.267 52.4284V48.3408C411.929 50.4735 409.921 52.1618 407.244 53.4059C404.566 54.65 401.698 55.272 398.639 55.272C394.432 55.272 390.767 54.3834 387.643 52.6061C384.52 50.7697 382.066 48.2223 380.281 44.964C378.56 41.7058 377.7 37.8847 377.7 33.5009C377.7 29.117 378.56 25.296 380.281 22.0377C382.066 18.7794 384.52 16.2617 387.643 14.4845C390.767 12.648 394.432 11.7297 398.639 11.7297C401.826 11.7297 404.726 12.3814 407.339 13.6847C410.016 14.9288 411.96 16.5875 413.171 18.661V12.7072H429.808V50.5623C429.808 58.2044 427.513 63.9212 422.924 67.7126C418.334 71.5041 411.769 73.3998 403.228 73.3998ZM403.897 43.6311C406.702 43.6311 408.933 42.7425 410.59 40.9653C412.247 39.188 413.076 36.6999 413.076 33.5009C413.076 30.3019 412.247 27.8137 410.59 26.0365C408.933 24.2593 406.702 23.3706 403.897 23.3706C401.156 23.3706 398.957 24.2593 397.3 26.0365C395.643 27.8137 394.814 30.3019 394.814 33.5009C394.814 36.6999 395.643 39.188 397.3 40.9653C398.957 42.7425 401.156 43.6311 403.897 43.6311Z" fill="white"/>
<path d="M435.925 56.4272V12.7072H452.465V20.0828C454.633 15.0473 459.317 12.2925 466.52 11.8186L471.205 11.4632L472.161 24.7924L462.887 25.5922C459.509 25.8884 457.055 26.777 455.525 28.258C453.995 29.6798 453.23 31.8125 453.23 34.6561V56.4272H435.925Z" fill="white"/>
<path d="M489.439 57.4047C485.806 57.4047 482.587 56.7826 479.782 55.5386C477.042 54.2945 474.874 52.6061 473.281 50.4735C471.751 48.2815 470.986 45.7934 470.986 43.0091C470.986 39.8693 471.879 37.3812 473.663 35.5447C475.448 33.649 478.316 32.316 482.268 31.5459C486.22 30.7165 491.479 30.3019 498.044 30.3019H501.677V29.0578C501.677 26.9251 501.072 25.4145 499.861 24.5258C498.713 23.6372 496.706 23.1929 493.837 23.1929C491.415 23.1929 488.738 23.5484 485.806 24.2593C482.874 24.9701 480.006 26.0661 477.201 27.5471L472.898 17.1503C474.492 16.084 476.532 15.1361 479.018 14.3067C481.503 13.4774 484.117 12.8553 486.858 12.4406C489.599 11.9667 492.18 11.7297 494.602 11.7297C502.442 11.7297 508.243 13.2996 512.003 16.4394C515.828 19.5792 517.74 24.5258 517.74 31.2793V56.4272H501.869V50.2069C501.04 52.458 499.542 54.2353 497.375 55.5386C495.208 56.7826 492.562 57.4047 489.439 57.4047ZM493.264 47.0967C495.622 47.0967 497.598 46.3858 499.192 44.964C500.849 43.5422 501.677 41.6762 501.677 39.3657V37.7662H498.044C494.284 37.7662 491.511 38.1513 489.726 38.9214C488.005 39.6323 487.145 40.7875 487.145 42.387C487.145 43.7496 487.654 44.8752 488.674 45.7638C489.758 46.6524 491.288 47.0967 493.264 47.0967Z" fill="white"/>
<path d="M523.798 56.4272V12.7072H540.339V18.5721C541.805 16.4987 543.749 14.8399 546.171 13.5958C548.657 12.3518 551.493 11.7297 554.68 11.7297C557.867 11.7297 560.608 12.3814 562.903 13.6847C565.261 14.988 567.046 17.0022 568.257 19.7273C569.851 17.1799 572.018 15.225 574.759 13.8624C577.5 12.4406 580.527 11.7297 583.842 11.7297C589.323 11.7297 593.371 13.27 595.984 16.3506C598.661 19.3719 600 24.1112 600 30.5684V56.4272H582.981V31.0127C582.981 28.4654 582.567 26.6289 581.738 25.5033C580.91 24.3777 579.539 23.8149 577.627 23.8149C575.269 23.8149 573.452 24.5851 572.177 26.1253C570.966 27.6656 570.361 29.8575 570.361 32.7011V56.4272H553.342V31.0127C553.342 28.4654 552.927 26.6289 552.099 25.5033C551.27 24.3777 549.9 23.8149 547.988 23.8149C545.693 23.8149 543.908 24.5851 542.633 26.1253C541.422 27.6656 540.817 29.8575 540.817 32.7011V56.4272H523.798Z" fill="white"/>
<path d="M257.348 82.784V114.007H251.341V110.508C250.63 111.719 249.597 112.664 248.241 113.343C246.917 114.022 245.399 114.361 243.687 114.361C241.653 114.361 239.828 113.889 238.213 112.944C236.631 111.999 235.388 110.671 234.483 108.958C233.611 107.216 233.175 105.223 233.175 102.979C233.175 100.735 233.611 98.7719 234.483 97.089C235.388 95.406 236.631 94.1069 238.213 93.1916C239.796 92.2763 241.62 91.8187 243.687 91.8187C245.399 91.8187 246.917 92.1435 248.241 92.793C249.565 93.4426 250.582 94.3579 251.292 95.5389V82.784H257.348ZM245.286 110.065C247.223 110.065 248.709 109.46 249.742 108.25C250.808 107.039 251.341 105.312 251.341 103.068C251.341 100.824 250.808 99.1114 249.742 97.9304C248.709 96.7199 247.239 96.1146 245.334 96.1146C243.396 96.1146 241.895 96.7051 240.829 97.8861C239.763 99.0671 239.231 100.765 239.231 102.979C239.231 105.223 239.763 106.965 240.829 108.205C241.895 109.445 243.38 110.065 245.286 110.065Z" fill="white"/>
<path d="M283.389 104.175H267.258C267.452 106.183 268.114 107.674 269.244 108.648C270.374 109.622 271.989 110.11 274.088 110.11C276.704 110.11 279.094 109.342 281.257 107.807L283.001 111.615C281.903 112.442 280.515 113.106 278.835 113.608C277.188 114.11 275.525 114.361 273.846 114.361C269.971 114.361 266.903 113.357 264.642 111.35C262.414 109.342 261.3 106.596 261.3 103.112C261.3 100.898 261.784 98.9343 262.753 97.2218C263.722 95.5094 265.078 94.1807 266.822 93.2359C268.598 92.2911 270.6 91.8187 272.829 91.8187C276.09 91.8187 278.658 92.7783 280.531 94.6974C282.436 96.6165 283.389 99.2591 283.389 102.625V104.175ZM272.974 95.716C271.359 95.716 270.051 96.1884 269.05 97.1332C268.081 98.0781 267.484 99.4362 267.258 101.208H278.206C278.141 99.4067 277.657 98.0485 276.752 97.1332C275.848 96.1884 274.589 95.716 272.974 95.716Z" fill="white"/>
<path d="M296.093 114.361C293.993 114.361 292.056 114.125 290.28 113.653C288.536 113.18 287.05 112.501 285.823 111.615L287.518 107.762C290.037 109.445 292.928 110.287 296.189 110.287C297.578 110.287 298.628 110.08 299.338 109.667C300.081 109.253 300.452 108.663 300.452 107.895C300.452 107.246 300.194 106.744 299.677 106.389C299.193 106.035 298.305 105.71 297.013 105.415L293.138 104.618C290.942 104.175 289.311 103.452 288.245 102.448C287.179 101.444 286.647 100.145 286.647 98.5505C286.647 97.2218 287.05 96.0556 287.858 95.0517C288.697 94.0183 289.844 93.2211 291.297 92.6602C292.782 92.0992 294.494 91.8187 296.432 91.8187C298.111 91.8187 299.726 92.0549 301.276 92.5273C302.858 92.9997 304.247 93.664 305.442 94.5203L303.746 98.2847C301.292 96.6608 298.838 95.8489 296.383 95.8489C295.059 95.8489 294.026 96.0703 293.283 96.5132C292.54 96.9561 292.169 97.5761 292.169 98.3733C292.169 98.9638 292.395 99.451 292.847 99.8348C293.331 100.219 294.09 100.514 295.124 100.721L299.144 101.562C301.502 102.034 303.23 102.787 304.328 103.821C305.426 104.825 305.975 106.153 305.975 107.807C305.975 109.814 305.086 111.409 303.31 112.59C301.534 113.771 299.128 114.361 296.093 114.361Z" fill="white"/>
<path d="M309.915 92.3502H315.97V114.007H309.915V92.3502ZM316.261 82.2968V87.7442H309.576V82.2968H316.261Z" fill="white"/>
<path d="M344.304 92.3502V112.014C344.304 115.409 343.271 117.978 341.204 119.72C339.169 121.462 336.15 122.333 332.145 122.333C330.078 122.333 328.092 122.082 326.187 121.58C324.282 121.108 322.619 120.429 321.198 119.543L322.893 115.646C325.832 117.269 328.867 118.081 332 118.081C336.198 118.081 338.297 116.192 338.297 112.413V109.578C337.587 110.789 336.553 111.733 335.197 112.413C333.841 113.062 332.291 113.387 330.547 113.387C328.48 113.387 326.639 112.944 325.024 112.058C323.442 111.143 322.199 109.873 321.294 108.25C320.39 106.626 319.938 104.751 319.938 102.625C319.938 100.499 320.374 98.6243 321.246 97.0004C322.15 95.347 323.41 94.0774 325.024 93.1916C326.639 92.2763 328.48 91.8187 330.547 91.8187C332.291 91.8187 333.841 92.1582 335.197 92.8373C336.553 93.4869 337.587 94.4169 338.297 95.6275V92.3502H344.304ZM332.145 109.091C334.083 109.091 335.585 108.515 336.65 107.364C337.748 106.212 338.297 104.633 338.297 102.625C338.297 100.588 337.748 98.9933 336.65 97.8418C335.585 96.6904 334.083 96.1146 332.145 96.1146C330.24 96.1146 328.738 96.6904 327.64 97.8418C326.542 98.9933 325.993 100.588 325.993 102.625C325.993 104.603 326.542 106.183 327.64 107.364C328.738 108.515 330.24 109.091 332.145 109.091Z" fill="white"/>
<path d="M363.364 91.8187C366.206 91.8187 368.321 92.5568 369.71 94.0331C371.099 95.5094 371.793 97.7385 371.793 100.721V114.007H365.738V101.031C365.738 99.3476 365.383 98.1223 364.672 97.3547C363.994 96.587 362.912 96.2032 361.426 96.2032C359.683 96.2032 358.278 96.7051 357.212 97.709C356.179 98.7128 355.662 100.056 355.662 101.739V114.007H349.607V92.3502H355.517V95.5832C356.324 94.3726 357.406 93.4426 358.762 92.793C360.119 92.1435 361.653 91.8187 363.364 91.8187Z" fill="white"/>
<path d="M397.876 114.361C395.777 114.361 393.839 114.125 392.063 113.653C390.319 113.18 388.833 112.501 387.606 111.615L389.302 107.762C391.821 109.445 394.711 110.287 397.973 110.287C399.361 110.287 400.411 110.08 401.121 109.667C401.864 109.253 402.236 108.663 402.236 107.895C402.236 107.246 401.977 106.744 401.461 106.389C400.976 106.035 400.088 105.71 398.796 105.415L394.921 104.618C392.725 104.175 391.094 103.452 390.028 102.448C388.963 101.444 388.43 100.145 388.43 98.5505C388.43 97.2218 388.833 96.0556 389.641 95.0517C390.48 94.0183 391.627 93.2211 393.08 92.6602C394.566 92.0992 396.277 91.8187 398.215 91.8187C399.894 91.8187 401.509 92.0549 403.059 92.5273C404.641 92.9997 406.03 93.664 407.225 94.5203L405.53 98.2847C403.075 96.6608 400.621 95.8489 398.167 95.8489C396.842 95.8489 395.809 96.0703 395.066 96.5132C394.324 96.9561 393.952 97.5761 393.952 98.3733C393.952 98.9638 394.178 99.451 394.63 99.8348C395.115 100.219 395.874 100.514 396.907 100.721L400.928 101.562C403.285 102.034 405.013 102.787 406.111 103.821C407.209 104.825 407.758 106.153 407.758 107.807C407.758 109.814 406.87 111.409 405.094 112.59C403.317 113.771 400.912 114.361 397.876 114.361Z" fill="white"/>
<path d="M433.941 92.3944L419.699 121.979H413.596L417.907 113.165L408.025 92.3944H414.419L421.104 107.674L427.983 92.3944H433.941Z" fill="white"/>
<path d="M444.285 114.361C442.186 114.361 440.248 114.125 438.472 113.653C436.728 113.18 435.242 112.501 434.015 111.615L435.711 107.762C438.23 109.445 441.12 110.287 444.382 110.287C445.77 110.287 446.82 110.08 447.53 109.667C448.273 109.253 448.645 108.663 448.645 107.895C448.645 107.246 448.386 106.744 447.869 106.389C447.385 106.035 446.497 105.71 445.205 105.415L441.33 104.618C439.134 104.175 437.503 103.452 436.437 102.448C435.372 101.444 434.839 100.145 434.839 98.5505C434.839 97.2218 435.242 96.0556 436.05 95.0517C436.889 94.0183 438.036 93.2211 439.489 92.6602C440.975 92.0992 442.686 91.8187 444.624 91.8187C446.303 91.8187 447.918 92.0549 449.468 92.5273C451.05 92.9997 452.439 93.664 453.634 94.5203L451.939 98.2847C449.484 96.6608 447.03 95.8489 444.575 95.8489C443.251 95.8489 442.218 96.0703 441.475 96.5132C440.732 96.9561 440.361 97.5761 440.361 98.3733C440.361 98.9638 440.587 99.451 441.039 99.8348C441.524 100.219 442.283 100.514 443.316 100.721L447.337 101.562C449.694 102.034 451.422 102.787 452.52 103.821C453.618 104.825 454.167 106.153 454.167 107.807C454.167 109.814 453.279 111.409 451.503 112.59C449.726 113.771 447.32 114.361 444.285 114.361Z" fill="white"/>
<path d="M469.981 110.198C470.692 110.198 471.435 110.154 472.21 110.065L471.919 114.184C470.95 114.273 470.062 114.317 469.255 114.317C465.928 114.317 463.474 113.623 461.892 112.235C460.309 110.818 459.518 108.722 459.518 105.947V96.5132H454.965V92.3502H459.518V85.8841H465.573V92.3502H471.822V96.5132H465.573V105.858C465.573 108.751 467.043 110.198 469.981 110.198Z" fill="white"/>
<path d="M495.565 104.175H479.434C479.628 106.183 480.29 107.674 481.42 108.648C482.551 109.622 484.165 110.11 486.264 110.11C488.88 110.11 491.27 109.342 493.434 107.807L495.178 111.615C494.08 112.442 492.691 113.106 491.012 113.608C489.365 114.11 487.702 114.361 486.022 114.361C482.147 114.361 479.079 113.357 476.818 111.35C474.59 109.342 473.476 106.596 473.476 103.112C473.476 100.898 473.96 98.9343 474.929 97.2218C475.898 95.5094 477.254 94.1807 478.998 93.2359C480.774 92.2911 482.777 91.8187 485.005 91.8187C488.267 91.8187 490.834 92.7783 492.707 94.6974C494.612 96.6165 495.565 99.2591 495.565 102.625V104.175ZM485.15 95.716C483.536 95.716 482.228 96.1884 481.227 97.1332C480.258 98.0781 479.66 99.4362 479.434 101.208H490.382C490.317 99.4067 489.833 98.0485 488.929 97.1332C488.024 96.1884 486.765 95.716 485.15 95.716Z" fill="white"/>
<path d="M527.694 91.8187C530.374 91.8187 532.376 92.5568 533.701 94.0331C535.025 95.4798 535.687 97.709 535.687 100.721V114.007H529.631V100.942C529.631 99.2886 529.325 98.0928 528.711 97.3547C528.097 96.587 527.112 96.2032 525.756 96.2032C524.141 96.2032 522.882 96.7051 521.978 97.709C521.073 98.7128 520.621 100.115 520.621 101.916V114.007H514.566V100.942C514.566 99.2886 514.259 98.0928 513.646 97.3547C513.065 96.587 512.08 96.2032 510.691 96.2032C509.108 96.2032 507.865 96.7051 506.961 97.709C506.057 98.7128 505.605 100.115 505.605 101.916V114.007H499.549V92.3502H505.459V95.406C506.17 94.225 507.155 93.3392 508.414 92.7487C509.674 92.1287 511.111 91.8187 512.725 91.8187C516.31 91.8187 518.684 93.1769 519.846 95.8932C520.589 94.6236 521.655 93.6345 523.043 92.9259C524.432 92.1878 525.982 91.8187 527.694 91.8187Z" fill="white"/>
<path fill-rule="evenodd" clip-rule="evenodd" d="M573.903 86.7452V113.436H545.215L573.903 86.7452Z" fill="#16DCA1"/>
<path fill-rule="evenodd" clip-rule="evenodd" d="M597.619 86.7452V113.436H568.93L597.619 86.7452Z" fill="#16DCA1"/>
<defs>
<linearGradient id="paint0_linear" x1="70.6512" y1="3.93375e-06" x2="193.403" y2="87.5502" gradientUnits="userSpaceOnUse">
<stop stop-color="#00ECFB"/>
<stop offset="1" stop-color="#1C92FF"/>
</linearGradient>
<linearGradient id="paint1_linear" x1="188.647" y1="52.2326" x2="174.822" y2="115.017" gradientUnits="userSpaceOnUse">
<stop stop-color="white"/>
<stop offset="1"/>
</linearGradient>
<radialGradient id="paint2_radial" cx="0" cy="0" r="1" gradientUnits="userSpaceOnUse" gradientTransform="translate(145.717 70.8556) rotate(-86.2713) scale(27.1049 61.7677)">
<stop stop-color="white"/>
<stop offset="1"/>
</radialGradient>
<radialGradient id="paint3_radial" cx="0" cy="0" r="1" gradientUnits="userSpaceOnUse" gradientTransform="translate(70.5707 114.575) rotate(-90) scale(59.8149 64.3295)">
<stop stop-color="white"/>
<stop offset="1"/>
</radialGradient>
<radialGradient id="paint4_radial" cx="0" cy="0" r="1" gradientUnits="userSpaceOnUse" gradientTransform="translate(122.143 19.3767) rotate(90) scale(47.178 101.238)">
<stop stop-color="white"/>
<stop offset="1"/>
</radialGradient>
<radialGradient id="paint5_radial" cx="0" cy="0" r="1" gradientUnits="userSpaceOnUse" gradientTransform="translate(64.7632 73.8708) rotate(-44.7818) scale(43.8739 44.2446)">
<stop stop-color="white"/>
<stop offset="1"/>
</radialGradient>
<radialGradient id="paint6_radial" cx="0" cy="0" r="1" gradientUnits="userSpaceOnUse" gradientTransform="translate(70.573) rotate(100.283) scale(59.7549 63.8412)">
<stop stop-color="white"/>
<stop offset="1"/>
</radialGradient>
</defs>
</svg>
