<svg width="70" height="43" viewBox="0 0 70 43" fill="none" xmlns="http://www.w3.org/2000/svg">
<path d="M24.8182 0V7.20383H60.7727L70 15.9737V33.5135L60.7727 42.5966V24.7436H42.6363L24.8182 42.5966V24.7436H0L24.8182 0Z" fill="url(#paint0_linear)"/>
<g style="mix-blend-mode:overlay" opacity="0.65">
<path fill-rule="evenodd" clip-rule="evenodd" d="M70 33.5134L60.7727 42.5965V24.7435L70 15.9736V33.5134Z" fill="url(#paint1_linear)"/>
<path d="M42.6365 24.7435H60.7728L51.3865 16.2869L42.6365 24.7435Z" fill="url(#paint2_radial)"/>
<path fill-rule="evenodd" clip-rule="evenodd" d="M42.6356 24.7437L24.8174 42.5966L24.8174 24.7437H42.6356Z" fill="url(#paint3_radial)"/>
<path fill-rule="evenodd" clip-rule="evenodd" d="M60.7719 7.20386L42.6356 24.7436L24.8174 7.20386H60.7719Z" fill="url(#paint4_radial)"/>
<path d="M24.8174 24.7436H42.6356L24.8174 7.20386V24.7436Z" fill="url(#paint5_radial)"/>
<path fill-rule="evenodd" clip-rule="evenodd" d="M24.8182 0V24.7436H0L24.8182 0Z" fill="url(#paint6_radial)"/>
</g>
<defs>
<linearGradient id="paint0_linear" x1="24.8457" y1="1.46248e-06" x2="69.6019" y2="30.1947" gradientUnits="userSpaceOnUse">
<stop stop-color="#00ECFB"/>
<stop offset="1" stop-color="#1C92FF"/>
</linearGradient>
<linearGradient id="paint1_linear" x1="66.3409" y1="19.4189" x2="60.9365" y2="42.6346" gradientUnits="userSpaceOnUse">
<stop stop-color="white"/>
<stop offset="1"/>
</linearGradient>
<radialGradient id="paint2_radial" cx="0" cy="0" r="1" gradientUnits="userSpaceOnUse" gradientTransform="translate(51.2439 26.3426) rotate(-86.4725) scale(10.0748 21.7265)">
<stop stop-color="white"/>
<stop offset="1"/>
</radialGradient>
<radialGradient id="paint3_radial" cx="0" cy="0" r="1" gradientUnits="userSpaceOnUse" gradientTransform="translate(24.8174 42.5966) rotate(-90) scale(22.2379 22.6225)">
<stop stop-color="white"/>
<stop offset="1"/>
</radialGradient>
<radialGradient id="paint4_radial" cx="0" cy="0" r="1" gradientUnits="userSpaceOnUse" gradientTransform="translate(42.9537 7.20386) rotate(90) scale(17.5398 35.6019)">
<stop stop-color="white"/>
<stop offset="1"/>
</radialGradient>
<radialGradient id="paint5_radial" cx="0" cy="0" r="1" gradientUnits="userSpaceOnUse" gradientTransform="translate(22.7751 27.4636) rotate(-46.3745) scale(15.8729 15.9891)">
<stop stop-color="white"/>
<stop offset="1"/>
</radialGradient>
<radialGradient id="paint6_radial" cx="0" cy="0" r="1" gradientUnits="userSpaceOnUse" gradientTransform="translate(24.8182) rotate(99.7377) scale(22.1783 22.4886)">
<stop stop-color="white"/>
<stop offset="1"/>
</radialGradient>
</defs>
</svg>
