<svg width="214" height="48" viewBox="0 0 214 48" fill="none" xmlns="http://www.w3.org/2000/svg" role="img" aria-labelledby="logo-title-tangram-602268"><title id="logo-title-tangram-602268">Logo Image</title><path d="M47.4367 17.7193L47.8159 20.0856H32.093L19.7283 7.6893H24.4481C27.9042 7.6893 31.3225 8.40759 34.4863 9.7986L44.8316 14.3471C46.2162 14.9558 47.1973 16.2258 47.4367 17.7193Z" fill="url(#paint0_linear_2_73)"></path><path d="M0.685303 26.7733L14.5938 12.9132V40.6335L0.685303 26.7733Z" fill="url(#paint1_linear_2_73)"></path><path d="M28.4294 33.4644L14.5384 20.0855V33.4644H28.4294Z" fill="#66E9FF"></path><path d="M32.0931 29.6095H37.4155C42.8264 29.6095 47.3408 25.4756 47.8159 20.0855H32.0931V29.6095Z" fill="#00DBFF"></path><path d="M28.4294 33.4644L14.5383 20.0855H32.2456V29.6095L28.4294 33.4644Z" fill="#0088CC"></path><path d="M25.1092 20.0856H14.5382V12.8292L19.7283 7.6893L32.2456 20.0856H28.2004H25.1092Z" fill="url(#paint2_linear_2_73)"></path><path d="M14.5384 47.5236L28.4294 33.4644H14.5384V47.5236Z" fill="#00DBFF"></path><path d="M9.39315 7.61633C7.97733 6.2142 7.97733 3.9409 9.39315 2.53877C10.809 1.13664 13.1045 1.13664 14.5203 2.53877L19.7823 7.74996L14.6552 12.8275L9.39315 7.61633Z" fill="url(#paint3_linear_2_73)"></path><path d="M152.233 31.7286V15.6292H156.874V19.4173H156.969V31.7286H152.233ZM163.061 31.7286V21.5007C163.061 20.68 162.84 20.0802 162.398 19.7014C161.977 19.3015 161.377 19.1016 160.599 19.1016C159.925 19.1016 159.305 19.2594 158.736 19.5751C158.189 19.8697 157.758 20.3011 157.442 20.8694C157.126 21.4165 156.969 22.0689 156.969 22.8265L156.558 19.1963C157.084 18.0178 157.842 17.0813 158.831 16.3868C159.841 15.6712 161.051 15.3135 162.461 15.3135C164.145 15.3135 165.45 15.787 166.376 16.734C167.323 17.681 167.796 18.8701 167.796 20.3011V31.7286H163.061ZM173.889 31.7286V21.5007C173.889 20.68 173.668 20.0802 173.226 19.7014C172.805 19.3015 172.205 19.1016 171.426 19.1016C170.753 19.1016 170.132 19.2594 169.564 19.5751C169.017 19.8697 168.585 20.3011 168.27 20.8694C167.954 21.4165 167.796 22.0689 167.796 22.8265L167.07 19.1963C167.596 18.0178 168.375 17.0813 169.406 16.3868C170.458 15.6712 171.721 15.3135 173.194 15.3135C174.941 15.3135 176.277 15.808 177.203 16.7972C178.15 17.7652 178.624 19.0384 178.624 20.6168V31.7286H173.889Z" fill="#111111"></path><path d="M145.911 31.7286C145.784 31.2656 145.69 30.771 145.627 30.2449C145.585 29.7188 145.563 29.1085 145.563 28.414H145.437V20.8062C145.437 20.1538 145.216 19.6487 144.774 19.291C144.353 18.9122 143.722 18.7228 142.88 18.7228C142.081 18.7228 141.439 18.8596 140.955 19.1331C140.492 19.4067 140.186 19.8066 140.039 20.3327H135.525C135.735 18.8806 136.483 17.681 137.766 16.734C139.05 15.787 140.807 15.3135 143.038 15.3135C145.353 15.3135 147.121 15.8291 148.341 16.8603C149.562 17.8915 150.172 19.3752 150.172 21.3113V28.414C150.172 28.9401 150.204 29.4768 150.267 30.0239C150.351 30.55 150.477 31.1183 150.646 31.7286H145.911ZM140.292 32.0442C138.692 32.0442 137.419 31.6444 136.472 30.8447C135.525 30.0239 135.052 28.9401 135.052 27.5932C135.052 26.099 135.609 24.8995 136.725 23.9945C137.861 23.0686 139.439 22.4688 141.46 22.1952L146.163 21.5323V24.2786L142.249 24.8784C141.407 25.0047 140.786 25.2362 140.386 25.5729C139.987 25.9096 139.787 26.3726 139.787 26.9619C139.787 27.488 139.976 27.8879 140.355 28.1614C140.734 28.435 141.239 28.5718 141.87 28.5718C142.859 28.5718 143.701 28.3088 144.395 27.7826C145.09 27.2355 145.437 26.6041 145.437 25.8886L145.879 28.414C145.416 29.6135 144.711 30.5185 143.764 31.1288C142.817 31.7391 141.66 32.0442 140.292 32.0442Z" fill="#111111"></path><path d="M125.364 31.7286V15.6292H130.004V19.4173H130.099V31.7286H125.364ZM130.099 23.3316L129.689 19.512C130.068 18.144 130.688 17.1023 131.551 16.3868C132.414 15.6712 133.487 15.3135 134.771 15.3135C135.171 15.3135 135.466 15.3556 135.655 15.4398V19.8592C135.55 19.8171 135.402 19.7961 135.213 19.7961C135.024 19.775 134.792 19.7645 134.519 19.7645C133.003 19.7645 131.888 20.0381 131.172 20.5852C130.457 21.1114 130.099 22.0268 130.099 23.3316Z" fill="#111111"></path><path d="M114.539 38.5156C112.308 38.5156 110.488 38.0421 109.077 37.095C107.689 36.148 106.868 34.8643 106.615 33.2438H111.098C111.266 33.6437 111.624 33.9488 112.171 34.1593C112.739 34.3697 113.455 34.4749 114.318 34.4749C115.749 34.4749 116.79 34.2014 117.443 33.6542C118.095 33.107 118.421 32.2547 118.421 31.0972V27.5932L118.674 27.6564C118.464 28.8349 117.853 29.7714 116.843 30.4659C115.833 31.1393 114.581 31.476 113.087 31.476C111.656 31.476 110.403 31.1498 109.33 30.4974C108.278 29.824 107.457 28.8875 106.868 27.6879C106.279 26.4884 105.984 25.0784 105.984 23.4579C105.984 21.8164 106.289 20.3853 106.899 19.1647C107.51 17.9441 108.362 16.9971 109.456 16.3236C110.572 15.6502 111.866 15.3135 113.339 15.3135C114.854 15.3135 116.085 15.6712 117.032 16.3868C118.001 17.1023 118.569 18.0809 118.737 19.3226L118.516 19.3541V15.6292H123.157V31.0341C123.157 33.349 122.388 35.1694 120.852 36.4953C119.316 37.8421 117.211 38.5156 114.539 38.5156ZM114.728 27.8458C115.843 27.8458 116.748 27.467 117.443 26.7093C118.137 25.9307 118.485 24.8258 118.485 23.3948C118.485 21.9637 118.127 20.8694 117.411 20.1117C116.717 19.3331 115.801 18.9437 114.665 18.9437C113.571 18.9437 112.666 19.3331 111.95 20.1117C111.256 20.8904 110.908 21.9953 110.908 23.4263C110.908 24.8574 111.256 25.9517 111.95 26.7093C112.666 27.467 113.592 27.8458 114.728 27.8458Z" fill="#111111"></path><path d="M89.2156 31.7286V15.6292H93.856V19.4173H93.9507V31.7286H89.2156ZM100.422 31.7286V21.7532C100.422 20.8694 100.191 20.2064 99.7275 19.7645C99.2856 19.3226 98.6332 19.1016 97.7704 19.1016C97.0338 19.1016 96.3709 19.2699 95.7816 19.6067C95.2134 19.9434 94.7609 20.4064 94.4242 20.9956C94.1085 21.5849 93.9507 22.2794 93.9507 23.0791L93.5403 19.1963C94.0664 18.0178 94.8346 17.0813 95.8447 16.3868C96.8759 15.6712 98.1386 15.3135 99.6328 15.3135C101.422 15.3135 102.79 15.8186 103.737 16.8287C104.684 17.8178 105.157 19.1542 105.157 20.8378V31.7286H100.422Z" fill="#111111"></path><path d="M82.8931 31.7286C82.7669 31.2656 82.6722 30.771 82.609 30.2449C82.5669 29.7188 82.5459 29.1085 82.5459 28.414H82.4196V20.8062C82.4196 20.1538 82.1987 19.6487 81.7567 19.291C81.3358 18.9122 80.7045 18.7228 79.8627 18.7228C79.063 18.7228 78.4211 18.8596 77.9371 19.1331C77.4741 19.4067 77.1689 19.8066 77.0216 20.3327H72.5074C72.7179 18.8806 73.465 17.681 74.7487 16.734C76.0325 15.787 77.7897 15.3135 80.0205 15.3135C82.3355 15.3135 84.1032 15.8291 85.3238 16.8603C86.5444 17.8915 87.1548 19.3752 87.1548 21.3113V28.414C87.1548 28.9401 87.1863 29.4768 87.2495 30.0239C87.3336 30.55 87.4599 31.1183 87.6283 31.7286H82.8931ZM77.2741 32.0442C75.6747 32.0442 74.4015 31.6444 73.4545 30.8447C72.5074 30.0239 72.0339 28.9401 72.0339 27.5932C72.0339 26.099 72.5916 24.8995 73.707 23.9945C74.8434 23.0686 76.4218 22.4688 78.4421 22.1952L83.1457 21.5323V24.2786L79.2313 24.8784C78.3895 25.0047 77.7687 25.2362 77.3688 25.5729C76.969 25.9096 76.7691 26.3726 76.7691 26.9619C76.7691 27.488 76.9585 27.8879 77.3373 28.1614C77.7161 28.435 78.2212 28.5718 78.8525 28.5718C79.8416 28.5718 80.6834 28.3088 81.3779 27.7826C82.0724 27.2355 82.4196 26.6041 82.4196 25.8886L82.8616 28.414C82.3986 29.6135 81.6936 30.5185 80.7466 31.1288C79.7995 31.7391 78.6421 32.0442 77.2741 32.0442Z" fill="#111111"></path><path d="M63.4186 31.7286V12.725H56.0002V9.00004H75.6983V12.725H68.28V31.7286H63.4186Z" fill="#111111"></path><rect x="185.362" y="14.9914" width="24.2531" height="17.1311" rx="1.92485" stroke="#111111" stroke-width="0.769938"></rect><path d="M201.804 27.6081C200.726 27.6081 199.864 27.3694 199.217 26.892C198.57 26.407 198.193 25.7256 198.085 24.8479H199.794C199.848 25.2944 200.064 25.6486 200.441 25.9104C200.818 26.1645 201.299 26.2915 201.885 26.2915C202.362 26.2915 202.728 26.2068 202.982 26.0374C203.244 25.868 203.374 25.6409 203.374 25.356C203.374 25.0865 203.297 24.871 203.143 24.7093C202.989 24.5399 202.724 24.4051 202.347 24.3051L200.799 23.8777C200.006 23.6545 199.425 23.3503 199.055 22.9654C198.693 22.5727 198.512 22.0838 198.512 21.4986C198.512 20.9982 198.639 20.567 198.893 20.2051C199.155 19.8356 199.521 19.5545 199.991 19.3621C200.46 19.1619 201.011 19.0618 201.642 19.0618C202.612 19.0618 203.386 19.2928 203.963 19.7547C204.541 20.209 204.868 20.8134 204.945 21.5679H203.236C203.159 21.1599 202.97 20.8596 202.67 20.6671C202.377 20.4746 202 20.3784 201.538 20.3784C201.138 20.3784 200.818 20.4554 200.58 20.6094C200.341 20.7633 200.222 20.9712 200.222 21.233C200.222 21.4332 200.287 21.618 200.418 21.7874C200.549 21.949 200.822 22.0876 201.238 22.2031L202.785 22.6304C203.602 22.8537 204.187 23.1617 204.541 23.5544C204.903 23.9393 205.084 24.4282 205.084 25.0211C205.084 25.8526 204.795 26.4917 204.218 26.9382C203.64 27.3848 202.835 27.6081 201.804 27.6081Z" fill="#111111"></path><path d="M191.26 27.5042V26.1183H193.362C193.962 26.1183 194.47 25.9989 194.886 25.7602C195.31 25.5139 195.629 25.1789 195.845 24.7555C196.068 24.332 196.18 23.8469 196.18 23.3003C196.18 22.7613 196.072 22.2878 195.856 21.8798C195.641 21.4717 195.321 21.1522 194.898 20.9212C194.482 20.6902 193.97 20.5747 193.362 20.5747H191.294V19.1888H193.362C194.293 19.1888 195.106 19.3582 195.798 19.697C196.491 20.0281 197.027 20.5054 197.404 21.1291C197.789 21.745 197.981 22.4765 197.981 23.3234C197.981 24.1703 197.789 24.9095 197.404 25.5408C197.019 26.1645 196.48 26.6495 195.787 26.996C195.102 27.3348 194.297 27.5042 193.373 27.5042H191.26ZM190.174 27.5042V19.1888H191.953V27.5042H190.174Z" fill="#111111"></path><defs><linearGradient id="paint0_linear_2_73" x1="36.1001" y1="10.8262" x2="32.1584" y2="20.1133" gradientUnits="userSpaceOnUse"><stop stop-color="#7B4AFF"></stop><stop offset="1" stop-color="#3C10B1"></stop></linearGradient><linearGradient id="paint1_linear_2_73" x1="7.63955" y1="12.9132" x2="7.63955" y2="40.6335" gradientUnits="userSpaceOnUse"><stop stop-color="#7B4AFF"></stop><stop offset="1" stop-color="#3C10B1"></stop></linearGradient><linearGradient id="paint2_linear_2_73" x1="27.7043" y1="15.5503" x2="14.5661" y2="20.1648" gradientUnits="userSpaceOnUse"><stop stop-color="#654AFF"></stop><stop offset="1" stop-color="#1010B1"></stop></linearGradient><linearGradient id="paint3_linear_2_73" x1="9.39315" y1="2.53877" x2="17.1427" y2="10.364" gradientUnits="userSpaceOnUse"><stop stop-color="#7B4AFF"></stop><stop offset="1" stop-color="#3C10B1"></stop></linearGradient></defs></svg>
